_________________________  Visit us at _________________________
  
http://p2pdl.com  ____________________________  http://p2pdl.com
                                                                                                                                                                                                                                                                  
                                                                                                   
 
http://www.shotpix.com/images/23162015128887292230.jpg


Release Title: 2 Chainz - I'm Different (2012)


                                1080p Full HD MP4 Video
                                           +
                                 128 Kbps/VBR M4A Audio

General
Complete name                  : 2 Chainz - I'm Different (1080p) x264 [VX] [P2PDL].mp4
Format                         : MPEG-4
Format profile                 : Base Media / Version 2
Codec ID                       : mp42
File size                      : 38.0 MiB
Duration                       : 3mn 36s

Video
ID                             : 1
Format                         : AVC
Format/Info                    : Advanced Video Codec
Format profile                 : High@L5.0
Width                          : 1 920 pixels
Height                         : 1 078 pixels
Display aspect ratio           : 16:9
Frame rate mode                : Variable
Frame rate                     : 23.976 fps
Color space                    : YUV
Chroma subsampling             : 4:2:0
Bit depth                      : 8 bits
Scan type                      : Progressive
Bits/(Pixel*Frame)             : 0.027
Stream size                    : 34.6 MiB (91%)
Writing library                : x264 core 128

Audio
ID                             : 2
Format                         : AAC
Format/Info                    : Advanced Audio Codec
Format profile                 : LC
Codec ID                       : 40
Duration                       : 3mn 36s
Bit rate mode                  : Variable
Bit rate                       : 125 Kbps
Maximum bit rate               : 266 Kbps
Channel(s)                     : 2 channels
Channel positions              : Front: L R
Sampling rate                  : 48.0 KHz
Compression mode               : Lossy
Stream size                    : 3.22 MiB (8%)

Subtitles                      : No

Screens:
 
http://www.shotpix.com/images/84232261157777255289.jpg 
http://www.shotpix.com/images/70572754566570574549.jpg

Thumbs:
 
http://www.shotpix.com/images/73347158849977591449.jpg

------------------------------------------------------------------------

Notes:

* Recommended to use latest version VLC Media Player.
* Install shark007 codecs in case of any kind of problem in playback (For non-VLC Media Player users).
* Alternatively, install Core AVC codecs, the fastest decoder that there is coupled with Community Center Codec Pack and play on Windows Media Player Classic.

Greets to: VYTO, a2zRG, stumpie1971, Sheychi, Caveman, Ash968, Masta and staff members at ExtraTorrent, TPB,KAT, 1337x, PublicHD, Ahashare, TorrentMafia, Limetorrents, BTScene, P2PDL, and all others

Encoder Notes: Looking For Early Access To Anything You Can Provide DVDScr, R5, DVDRips, BluRay, Direct Audio, Early Music
Releases, Seedboxes, Links, Dedicated Servers anything u can provide, Advance / Promo CDs/DVDs. If You Got anything to
offer contact me at "prg@hush.com"

Facebook Fan Page: www . facebook . com / p2pdl